<?xml version="1.0" encoding="iso-8859-1"?>
<!-- Uploaded to: SVG Repo, www.svgrepo.com, Generator: SVG Repo Mixer Tools -->
<svg version="1.1" id="Layer_1" xmlns="http://www.w3.org/2000/svg" xmlns:xlink="http://www.w3.org/1999/xlink" 
	 viewBox="0 0 392.663 392.663" xml:space="preserve">
<rect x="85.333" y="21.915" style="fill:#FFFFFF;" width="221.673" height="136.21"/>
<polygon style="fill:#FFC10D;" points="220.315,179.911 178.424,179.911 166.141,207.451 228.525,207.451 "/>
<rect x="21.721" y="329.051" style="fill:#56ACE0;" width="41.826" height="41.826"/>
<path style="fill:#FFC10D;" d="M196.202,329.051c-11.507,0-20.881,9.374-20.881,20.881c0,11.507,9.374,20.881,20.881,20.881
	c11.507,0,20.881-9.374,20.881-20.881C217.083,338.424,207.709,329.051,196.202,329.051z"/>
<rect x="328.857" y="329.051" style="fill:#56ACE0;" width="41.826" height="41.826"/>
<path style="fill:#194F82;" d="M381.608,307.265h-20.881v-40.598c0-6.012-4.848-10.925-10.925-10.925H207.127v-26.505h36.008
	c3.491,0,6.723-1.616,8.727-4.396c2.069-2.78,2.715-6.335,1.681-9.632l-10.537-35.232h74.925c6.012,0,10.925-4.848,10.925-10.925
	V10.99c0-6.012-4.848-10.925-10.925-10.925H74.408c-6.012,0-10.925,4.848-10.925,10.925v157.996c0,6.012,4.848,10.925,10.925,10.925
	h80.162l-15.257,33.939c-1.551,3.426-1.228,7.24,0.776,10.343c2.004,3.103,5.495,4.913,9.115,4.913h36.008v26.505H42.667
	c-6.012,0-10.925,4.848-10.925,10.925v40.598H10.925C4.913,307.135,0,311.984,0,318.061v63.612c0,6.012,4.848,10.925,10.925,10.925
	h63.612c6.012,0,10.925-4.849,10.925-10.925v-63.612c0-6.012-4.848-10.925-10.925-10.925H53.657v-29.673h131.749v31.16
	c-18.23,4.848-31.806,21.463-31.806,41.244c0,23.596,19.135,42.731,42.731,42.731s42.731-19.135,42.731-42.731
	c0-19.782-13.511-36.396-31.806-41.244v-31.16h131.749v29.673h-20.881c-6.012,0-10.925,4.848-10.925,10.925v63.612
	c0,6.012,4.848,10.925,10.925,10.925h63.612c6.012,0,10.925-4.849,10.925-10.925v-63.612
	C392.469,312.178,387.62,307.265,381.608,307.265z M63.547,370.877H21.721v-41.826h41.826
	C63.547,329.051,63.547,370.877,63.547,370.877z M196.202,370.877c-11.507,0-20.881-9.374-20.881-20.881s9.374-20.881,20.881-20.881
	c11.507,0,20.881,9.374,20.881,20.881S207.709,370.877,196.202,370.877z M85.333,21.915h221.673v136.21H85.333V21.915z
	 M178.424,179.911h41.891l8.21,27.539h-62.384L178.424,179.911z M370.683,370.877h-41.826v-41.826h41.826V370.877z"/>
<path style="fill:#56ACE0;" d="M107.184,43.701v6.271h36.331c6.012,0,10.925,4.848,10.925,10.925
	c0,6.012-4.848,10.925-10.925,10.925h-36.331v21.786h14.545c6.012,0,10.925,4.848,10.925,10.925c0,6.012-4.848,10.925-10.925,10.925
	h-14.545v20.945h178.101V43.701H107.184z"/>
</svg>